<svg xmlns="http://www.w3.org/2000/svg" viewBox="0 0 64 64" role="img" aria-label="Vowel Trowel">
  <rect width="64" height="64" fill="rgba(0,0,0,0)" />
  <path d="M20 33C23 46 29 56 36 63C44 54 50 43 52 33C45 27 28 27 20 33Z" fill="#202020" />
  <path d="M14 29C17 43 24 54 32 61C40 54 47 43 50 29C42 24 22 24 14 29Z" fill="#fffdfa" stroke="#202020" stroke-width="5" stroke-linejoin="round" />
  <path d="M20 19H44L40 32H24Z" fill="#a24f2f" stroke="#202020" stroke-width="5" stroke-linejoin="round" />
  <rect x="23" y="2" width="18" height="23" rx="6" fill="#264f87" stroke="#202020" stroke-width="5" />
  <path d="M23 38C25 45 28 50 32 55" fill="none" stroke="#c8c0b4" stroke-width="4" stroke-linecap="square" />
  <path d="M28 8H36" fill="none" stroke="#e7eefc" stroke-width="3" stroke-linecap="square" />
</svg>
